<svg aria-hidden="true" style="position: absolute; width: 0; height: 0; overflow: hidden;" version="1.1" xmlns="http://www.w3.org/2000/svg" xmlns:xlink="http://www.w3.org/1999/xlink">
<defs>
<!-- <symbol id="icon-logo"  viewBox="0 0 51 32">
<path  d="M33.189 15.348l0.93 2.146c0.172 0.395 0.645 0.583 1.058 0.418 0.414-0.163 0.61-0.616 0.438-1.011l-0.93-2.145-1.496 0.592z"></path>
<path  d="M33.809 16.779v0z"></path>
<path  d="M31.227 10.82v0z"></path>
<path  d="M32.378 6.47c0 1.14-0.966 2.064-2.158 2.064-1.193 0-2.16-0.924-2.16-2.064s0.967-2.064 2.16-2.064c1.191 0 2.158 0.924 2.158 2.064z"></path>
<path  d="M31.299 6.47c0 0.57-0.483 1.033-1.079 1.033s-1.081-0.462-1.081-1.033c0-0.57 0.484-1.032 1.081-1.032s1.079 0.462 1.079 1.032z"></path>
<path  d="M28.706 7.942l-2.953 6.815-0.74 3.058 0.499 0.197 1.738-2.663 0.414-0.953c-0.323-0.745 0.047-1.6 0.826-1.908l1.712-3.954c-0.582-0.005-1.109-0.23-1.496-0.592z"></path>
<path  d="M31.733 7.941c-0.386 0.363-0.914 0.588-1.496 0.593l2.54 5.861 1.496-0.592-2.54-5.861z"></path>
<path  d="M31.029 3.374v-2.322c-0-0.428-0.364-0.774-0.81-0.774-0.447 0-0.81 0.346-0.81 0.774l0 2.322h1.619z"></path>
<path  d="M30.22 4.407c0.138 0 0.273 0.013 0.404 0.037v-1.069h-0.809v1.069c0.131-0.024 0.266-0.037 0.405-0.037z"></path>
<path  d="M18.979 18.866h-2.693v-18.589h2.693c0.595 0 1.077 0.463 1.077 1.033v16.524h-0c-0 0.57-0.482 1.032-1.077 1.032z"></path>
<path  d="M18.844 1.826c0.223 0 0.404-0.173 0.404-0.387s-0.181-0.387-0.404-0.387c-0.223 0-0.404 0.173-0.404 0.387s0.181 0.387 0.404 0.387z"></path>
<path  d="M21.941 11.251c0 0.213 0.181 0.387 0.404 0.387s0.404-0.174 0.404-0.387c0 0.213 0.181 0.387 0.404 0.387s0.404-0.174 0.404-0.387c0 0.213-0.181 0.387-0.404 0.387s-0.404-0.174-0.404-0.387c0 0.213-0.181 0.387-0.404 0.387s-0.404-0.174-0.404-0.387z"></path>
<path  d="M22.48 0.277c-0.297 0-0.539 0.232-0.539 0.517v-0 10.844l0.808 3.098 0.808-3.098v-10.844c0-0.285-0.241-0.517-0.539-0.517l-0.538-0z"></path>

</symbol> -->

<symbol id="icon-logo" viewBox="0 0 49 32">
<path d="M31.422 14.906l0.909 2.098c0.168 0.387 0.631 0.57 1.034 0.409 0.404-0.159 0.596-0.602 0.428-0.989l-0.909-2.097-1.463 0.579z"></path>
<path d="M32.028 16.304v0z"></path>
<path d="M29.503 10.478v0z"></path>
<path d="M30.629 6.225c0 1.115-0.945 2.018-2.11 2.018-1.166 0-2.111-0.904-2.111-2.018s0.945-2.018 2.111-2.018c1.165 0 2.11 0.903 2.11 2.018z"></path>
<path d="M29.573 6.225c0 0.558-0.472 1.010-1.055 1.010s-1.057-0.452-1.057-1.010c0-0.557 0.473-1.009 1.057-1.009s1.055 0.452 1.055 1.009z"></path>
<path d="M27.038 7.664l-2.888 6.663-0.724 2.99 0.488 0.193 1.7-2.604 0.404-0.932c-0.315-0.729 0.046-1.564 0.808-1.865l1.674-3.866c-0.569-0.005-1.085-0.225-1.462-0.579z"></path>
<path d="M29.998 7.663c-0.378 0.355-0.893 0.575-1.463 0.579l2.484 5.73 1.462-0.579-2.483-5.731z"></path>
<path d="M29.31 3.198v-2.271c-0-0.418-0.356-0.757-0.792-0.757-0.437 0-0.792 0.338-0.792 0.757l0 2.271h1.583z"></path>
<path d="M28.519 4.207c0.135 0 0.267 0.013 0.395 0.036v-1.045h-0.791v1.045c0.128-0.023 0.26-0.036 0.396-0.036z"></path>
<path d="M17.527 18.345h-2.633v-18.176h2.634c0.582 0 1.053 0.452 1.053 1.010v16.157h-0c-0 0.558-0.472 1.009-1.053 1.009z"></path>
<path d="M17.396 1.684c0.218 0 0.395-0.17 0.395-0.379s-0.177-0.379-0.395-0.379c-0.218 0-0.395 0.17-0.395 0.379s0.177 0.379 0.395 0.379z"></path>
<path d="M20.424 10.899c0 0.208 0.177 0.378 0.395 0.378s0.395-0.17 0.395-0.378c0 0.208 0.177 0.378 0.395 0.378s0.395-0.17 0.395-0.378c0 0.208-0.177 0.378-0.395 0.378s-0.395-0.17-0.395-0.378c0 0.208-0.177 0.378-0.395 0.378s-0.395-0.17-0.395-0.378z"></path>
<path d="M20.951 0.169c-0.291 0-0.527 0.227-0.527 0.506v-0 10.603l0.79 3.029 0.79-3.029v-10.603c0-0.279-0.236-0.505-0.527-0.505l-0.526-0z"></path>
<path d="M1.052 23.552h1.095c0.403 0 0.69 0.069 0.86 0.206 0.175 0.133 0.284 0.358 0.327 0.676 0.047 0.313 0.071 0.834 0.071 1.564s-0.024 1.254-0.071 1.572c-0.043 0.313-0.152 0.538-0.327 0.676-0.171 0.133-0.457 0.199-0.86 0.199h-1.095v-4.892zM2.148 27.783c0.175 0 0.296-0.028 0.363-0.085 0.071-0.062 0.119-0.209 0.142-0.441 0.024-0.237 0.036-0.657 0.036-1.259s-0.012-1.019-0.036-1.252c-0.024-0.237-0.071-0.384-0.142-0.441-0.066-0.062-0.187-0.092-0.363-0.092h-0.377v3.57h0.377zM4.871 28.444v-4.892h0.725v4.892h-0.725zM8.314 26.354v-0.64h1.109v2.645c-0.137 0.043-0.303 0.076-0.498 0.1-0.194 0.028-0.377 0.043-0.548 0.043-0.37 0-0.645-0.064-0.825-0.192-0.18-0.133-0.306-0.372-0.377-0.718-0.071-0.351-0.107-0.882-0.107-1.593s0.036-1.24 0.107-1.586c0.076-0.346 0.209-0.585 0.398-0.718s0.479-0.199 0.868-0.199c0.152 0 0.318 0.014 0.498 0.043 0.185 0.024 0.344 0.055 0.476 0.092v0.612c-0.137-0.024-0.28-0.043-0.427-0.057-0.147-0.019-0.258-0.028-0.334-0.028-0.28 0-0.474 0.031-0.583 0.092-0.104 0.062-0.178 0.216-0.22 0.462-0.043 0.242-0.064 0.671-0.064 1.287 0 0.578 0.012 0.991 0.036 1.237 0.028 0.247 0.083 0.412 0.164 0.498s0.216 0.128 0.405 0.128c0.142 0 0.266-0.014 0.37-0.043v-1.465h-0.448zM10.904 28.444v-4.892h0.725v4.892h-0.725zM13.714 28.444v-4.224h-0.804v-0.668h2.332v0.668h-0.804v4.224h-0.725zM18.015 28.444l-0.206-1.173h-0.953l-0.199 1.173h-0.725l0.882-4.892h1.052l0.882 4.892h-0.732zM17.353 24.348h-0.043l-0.377 2.276h0.796l-0.377-2.276zM20.020 28.444v-4.892h0.732v4.224h1.074v0.668h-1.806zM25.032 23.552h1.259c0.313 0 0.548 0.064 0.704 0.192 0.156 0.123 0.258 0.296 0.306 0.519 0.052 0.223 0.078 0.521 0.078 0.896 0 0.36-0.024 0.652-0.071 0.875s-0.152 0.401-0.313 0.533c-0.156 0.133-0.391 0.199-0.704 0.199h-0.533v1.678h-0.725v-4.892zM26.177 26.112c0.147 0 0.251-0.026 0.313-0.078 0.066-0.057 0.109-0.149 0.128-0.277 0.024-0.128 0.036-0.327 0.036-0.597s-0.012-0.467-0.036-0.59c-0.019-0.128-0.062-0.218-0.128-0.27-0.062-0.057-0.166-0.085-0.313-0.085h-0.42v1.899h0.42zM30.426 28.444l-0.448-1.82h-0.548v1.82h-0.725v-4.892h1.287c0.313 0 0.548 0.059 0.704 0.178s0.258 0.287 0.306 0.505c0.052 0.213 0.078 0.498 0.078 0.853 0 0.365-0.028 0.659-0.085 0.882s-0.175 0.389-0.356 0.498l0.533 1.977h-0.747zM29.878 25.984c0.147 0 0.251-0.026 0.313-0.078 0.066-0.052 0.109-0.137 0.128-0.256 0.024-0.119 0.036-0.303 0.036-0.555 0-0.247-0.012-0.429-0.036-0.548-0.019-0.119-0.062-0.204-0.128-0.256s-0.171-0.078-0.313-0.078h-0.448v1.771h0.448zM33.683 28.501c-0.398 0-0.685-0.069-0.86-0.206-0.171-0.137-0.28-0.367-0.327-0.69-0.043-0.322-0.064-0.858-0.064-1.607s0.021-1.285 0.064-1.607c0.047-0.322 0.156-0.552 0.327-0.69 0.175-0.137 0.462-0.206 0.86-0.206 0.403 0 0.69 0.069 0.86 0.206 0.175 0.137 0.284 0.367 0.327 0.69 0.047 0.322 0.071 0.858 0.071 1.607s-0.024 1.285-0.071 1.607c-0.043 0.322-0.152 0.552-0.327 0.69-0.171 0.137-0.457 0.206-0.86 0.206zM33.683 27.84c0.175 0 0.296-0.031 0.363-0.092s0.111-0.213 0.135-0.455c0.024-0.242 0.036-0.673 0.036-1.294s-0.012-1.052-0.036-1.294c-0.024-0.242-0.069-0.393-0.135-0.455s-0.187-0.092-0.363-0.092c-0.175 0-0.296 0.031-0.363 0.092-0.062 0.062-0.104 0.213-0.128 0.455s-0.036 0.673-0.036 1.294c0 0.621 0.012 1.052 0.036 1.294s0.066 0.393 0.128 0.455c0.066 0.062 0.187 0.092 0.363 0.092zM36.099 27.819c0.19-0.005 0.32-0.024 0.391-0.057 0.071-0.038 0.116-0.121 0.135-0.249 0.019-0.133 0.028-0.377 0.028-0.732v-3.228h0.725v2.887c0 0.683-0.024 1.15-0.071 1.401s-0.152 0.415-0.313 0.491c-0.161 0.071-0.46 0.109-0.896 0.114v-0.626zM38.89 28.444v-4.892h1.927v0.661h-1.195v1.429h1.045v0.661h-1.045v1.479h1.195v0.661h-1.927zM44.007 28.395c-0.081 0.033-0.183 0.059-0.306 0.078s-0.239 0.028-0.348 0.028c-0.37 0-0.64-0.069-0.811-0.206-0.166-0.142-0.277-0.382-0.334-0.718s-0.085-0.863-0.085-1.579c0-0.706 0.028-1.23 0.085-1.572 0.062-0.341 0.178-0.581 0.348-0.718 0.171-0.142 0.436-0.213 0.796-0.213 0.119 0 0.237 0.009 0.356 0.028 0.123 0.019 0.218 0.043 0.284 0.071v0.612c-0.18-0.033-0.348-0.050-0.505-0.050-0.213 0-0.363 0.038-0.448 0.114-0.081 0.076-0.133 0.232-0.156 0.469s-0.036 0.657-0.036 1.259c0 0.602 0.012 1.022 0.036 1.259s0.076 0.393 0.156 0.469c0.085 0.076 0.235 0.114 0.448 0.114 0.18 0 0.353-0.017 0.519-0.050v0.604zM45.879 28.444v-4.224h-0.804v-0.668h2.332v0.668h-0.804v4.224h-0.725z"></path>
</symbol>


<symbol id="icon-errow-left" viewBox="0 0 64 32">
<path style="fill: var(--color1, #333)" d="M64 16c0-0.982-0.796-1.778-1.778-1.778h-56.889c-0.982 0-1.778 0.796-1.778 1.778s0.796 1.778 1.778 1.778h56.889c0.982 0 1.778-0.796 1.778-1.778z"></path>
<path style="fill: var(--color1, #333)" d="M19.035 2.298c-0.694-0.694-1.82-0.694-2.514 0l-13.702 13.702 13.702 13.701c0.694 0.694 1.82 0.694 2.514 0s0.694-1.82 0-2.514l-11.187-11.187 11.187-11.187c0.694-0.694 0.694-1.82 0-2.514z"></path>
</symbol>
<symbol id="icon-arrow-right" viewBox="0 0 68 32">
<path  d="M3.325 16c0-0.982 0.796-1.778 1.778-1.778h56.889c0.982 0 1.778 0.796 1.778 1.778s-0.796 1.778-1.778 1.778h-56.889c-0.982 0-1.778-0.796-1.778-1.778z"></path>
<path  d="M48.291 2.298c0.694-0.694 1.82-0.694 2.514 0l13.701 13.702-13.701 13.701c-0.694 0.694-1.82 0.694-2.514 0s-0.694-1.82 0-2.514l11.187-11.187-11.187-11.187c-0.694-0.694-0.694-1.82 0-2.514z"></path>
</symbol>
<symbol id="icon-check" viewBox="0 0 45 32">
<path d="M6.951 14.178c-1.196-1.114-3.136-1.114-4.332 0s-1.196 2.92 0 4.035l10.83 10.087c1.2 1.118 3.147 1.114 4.342-0.009l24.397-22.925c1.191-1.119 1.182-2.925-0.019-4.035s-3.141-1.101-4.332 0.018l-22.231 20.889-8.655-8.060z"></path>
</symbol>

<symbol id="icon-location" viewBox="0 0 32 32">
<path d="M16 0c-5.523 0-10 4.477-10 10 0 10 10 22 10 22s10-12 10-22c0-5.523-4.477-10-10-10zM16 16.125c-3.383 0-6.125-2.742-6.125-6.125s2.742-6.125 6.125-6.125 6.125 2.742 6.125 6.125-2.742 6.125-6.125 6.125zM12.125 10c0-2.14 1.735-3.875 3.875-3.875s3.875 1.735 3.875 3.875c0 2.14-1.735 3.875-3.875 3.875s-3.875-1.735-3.875-3.875z"></path>
</symbol>

<symbol id="icon-phone" viewBox="0 0 33 32">
<path d="M29.538 32h-0.209c-24.185-1.391-27.618-21.797-28.098-28.025-0.039-0.484 0.019-0.971 0.168-1.433s0.389-0.89 0.705-1.259c0.316-0.369 0.701-0.673 1.134-0.893s0.905-0.353 1.39-0.39h6.782c0.493-0 0.975 0.147 1.383 0.424s0.724 0.669 0.906 1.127l1.871 4.603c0.18 0.447 0.225 0.938 0.129 1.411s-0.329 0.907-0.67 1.248l-2.622 2.646c0.409 2.327 1.524 4.472 3.192 6.145s3.811 2.793 6.137 3.209l2.671-2.646c0.346-0.337 0.785-0.565 1.259-0.654s0.966-0.038 1.411 0.15l4.64 1.858c0.451 0.188 0.836 0.506 1.106 0.914s0.412 0.886 0.408 1.375v6.498c0 0.979-0.389 1.918-1.081 2.611s-1.632 1.081-2.611 1.081zM4.923 2.462c-0.326 0-0.639 0.13-0.87 0.36s-0.36 0.544-0.36 0.87v0.098c0.566 7.286 4.197 24.517 25.772 25.748 0.162 0.010 0.324-0.012 0.477-0.065s0.294-0.135 0.416-0.243 0.22-0.238 0.291-0.384c0.071-0.146 0.112-0.304 0.121-0.466v-6.572l-4.64-1.858-3.532 3.508-0.591-0.074c-10.708-1.342-12.16-12.049-12.16-12.16l-0.074-0.591 3.495-3.532-1.846-4.64h-6.498z"></path>
</symbol>

<symbol id="icon-envelope" viewBox="0 0 43 32">
<path d="M40 0h-37.333c-0.707 0-1.386 0.281-1.886 0.781s-0.781 1.178-0.781 1.886v26.667c0 0.707 0.281 1.385 0.781 1.886s1.178 0.781 1.886 0.781h37.333c0.707 0 1.385-0.281 1.886-0.781s0.781-1.178 0.781-1.886v-26.667c0-0.707-0.281-1.386-0.781-1.886s-1.178-0.781-1.886-0.781zM37.947 29.333h-33.067l9.333-9.653-1.92-1.853-9.627 9.96v-23.093l16.573 16.493c0.5 0.497 1.175 0.775 1.88 0.775s1.38-0.279 1.88-0.775l17-16.907v23.333l-9.813-9.813-1.88 1.88 9.64 9.653zM4.413 2.667h33.427l-16.72 16.627-16.707-16.627z"></path>
</symbol>

<symbol id="icon-facebook" viewBox="0 0 18 32">
<path d="M11.2 18.4h4l1.6-6.4h-5.6v-3.2c0-1.648 0-3.2 3.2-3.2h2.4v-5.376c-0.522-0.069-2.491-0.224-4.571-0.224-4.344 0-7.429 2.651-7.429 7.52v4.48h-4.8v6.4h4.8v13.6h6.4v-13.6z"></path>
</symbol>

<symbol id="icon-twitter" viewBox="0 0 41 32">
<path d="M40.395 3.765c-1.449 0.659-3.012 1.092-4.631 1.299 1.656-0.998 2.936-2.579 3.539-4.48-1.562 0.941-3.294 1.6-5.12 1.976-1.487-1.619-3.576-2.56-5.948-2.56-4.424 0-8.038 3.614-8.038 8.075 0 0.64 0.075 1.261 0.207 1.845-6.701-0.339-12.668-3.558-16.64-8.433-0.696 1.186-1.092 2.579-1.092 4.047 0 2.805 1.412 5.289 3.595 6.701-1.336 0-2.579-0.376-3.671-0.941v0.056c0 3.915 2.786 7.191 6.475 7.925-1.184 0.324-2.428 0.369-3.633 0.132 0.511 1.605 1.513 3.009 2.863 4.015s2.982 1.564 4.666 1.595c-2.854 2.26-6.392 3.481-10.033 3.464-0.64 0-1.28-0.038-1.92-0.113 3.576 2.296 7.831 3.633 12.386 3.633 14.833 0 22.984-12.311 22.984-22.984 0-0.358 0-0.696-0.019-1.054 1.581-1.129 2.936-2.56 4.028-4.198z"></path>
</symbol>

<symbol id="icon-linkedin" viewBox="0 0 32 32">
<path d="M0 2.673v26.652c-0 0.351 0.069 0.699 0.203 1.024s0.331 0.619 0.579 0.868c0.248 0.248 0.543 0.446 0.868 0.58s0.672 0.204 1.023 0.204h26.652c0.351 0 0.7-0.069 1.024-0.203s0.62-0.332 0.868-0.58 0.446-0.544 0.58-0.869c0.134-0.325 0.203-0.673 0.203-1.024v-26.65c0-0.351-0.069-0.699-0.203-1.024s-0.332-0.62-0.58-0.868c-0.249-0.248-0.544-0.445-0.869-0.579s-0.673-0.203-1.024-0.202h-26.65c-0.709 0-1.389 0.282-1.89 0.783s-0.783 1.181-0.783 1.89zM12.666 12.201h4.333v2.176c0.625-1.251 2.225-2.377 4.63-2.377 4.609 0 5.702 2.492 5.702 7.063v8.468h-4.665v-7.427c0-2.604-0.625-4.073-2.214-4.073-2.204 0-3.12 1.584-3.12 4.073v7.427h-4.666v-15.331zM4.666 27.332v-15.332h4.666v15.332h-4.666zM10 6.999c0.009 0.4-0.062 0.797-0.209 1.168s-0.366 0.71-0.646 0.996c-0.279 0.286-0.613 0.513-0.981 0.668s-0.764 0.235-1.164 0.235c-0.4 0-0.795-0.080-1.164-0.235s-0.702-0.382-0.981-0.668c-0.279-0.286-0.499-0.624-0.646-0.996s-0.218-0.769-0.209-1.168c0.017-0.784 0.341-1.53 0.902-2.079s1.314-0.856 2.098-0.856c0.784 0 1.538 0.307 2.098 0.856s0.884 1.295 0.902 2.079z"></path>
</symbol>

<symbol id="icon-pinterest" viewBox="0 0 26 32">
<path d="M10.672 20.955c-0.81 4.362-1.795 8.544-4.72 10.728-0.901-6.592 1.326-11.544 2.36-16.8-1.763-3.056 0.213-9.208 3.931-7.693 4.576 1.866-3.963 11.363 1.77 12.55 5.986 1.238 8.43-10.693 4.718-14.574-5.363-5.602-15.611-0.126-14.35 7.894 0.307 1.962 2.274 2.557 0.786 5.264-3.432-0.786-4.456-3.573-4.323-7.29 0.211-6.080 5.307-10.339 10.418-10.928 6.464-0.746 12.53 2.443 13.366 8.704 0.944 7.066-2.917 14.72-9.827 14.168-1.874-0.149-2.661-1.104-4.128-2.024z"></path>
</symbol>
</defs>
</svg>
